# xmcd CD database file
#
# Track frame offsets:
#	151
#	13280
#	24952
#	38523
#	52378
#	65582
#	76504
#	88656
#	101791
#	114777
#	126827
#	140662
#	152873
#	164711
#	177962
#	191615
#	203260
#	215553
#	227150
#	238680
#	251027
#	264180
#
# Disc length: 3682 seconds
#
# Revision: 0
# Processed by: cddbd v1.5.2PL0 Copyright (c) Steve Scherf et al.
# Submitted via: CDex 1.70beta2
#
DISCID=2f0e6016
DTITLE=Robert Johnson - Delta Blues CD 1
DYEAR=1936
DGENRE=Blues
TTITLE0=Kind Hearted Woman Blues 1
TTITLE1=Kind Hearted Woman Blues 2
TTITLE2=I´l Believe I´ll Dust My Broom
TTITLE3=Sweet Home chicago
TTITLE4=Ramblin´ On My Mind 1
TTITLE5=Ramblin´ On My Mind 2
TTITLE6=When You Got A Good Friend 1
TTITLE7=When You Got a Good Friend 2
TTITLE8=Come On In My Kitchen 1
TTITLE9=Come On In My Kitchen 2
TTITLE10=Terraplane Blues
TTITLE11=Phonograph Blues
TTITLE12=Phonograph Blues
TTITLE13=32-20 Blues
TTITLE14=They´re Red Hot
TTITLE15=Dead Shrimp Blues
TTITLE16=Cross Road Blues 1
TTITLE17=Cross Road Blues 2
TTITLE18=Walking Blues
TTITLE19=Last Fair Deal Gone Down
TTITLE20=Preaching Blues (Up Jumped The Devil)
TTITLE21=If I Had Possession Over Judgement Day
EXTD=YEAR: 1936
EXTT0=
EXTT1=
EXTT2=
EXTT3=
EXTT4=
EXTT5=
EXTT6=
EXTT7=
EXTT8=
EXTT9=
EXTT10=
EXTT11=
EXTT12=
EXTT13=
EXTT14=
EXTT15=
EXTT16=
EXTT17=
EXTT18=
EXTT19=
EXTT20=
EXTT21=
PLAYORDER=
